<?xml version="1.0" encoding="iso-8859-1"?>
<!-- Uploaded to: SVG Repo, www.svgrepo.com, Generator: SVG Repo Mixer Tools -->
<!DOCTYPE svg PUBLIC "-//W3C//DTD SVG 1.1//EN" "http://www.w3.org/Graphics/SVG/1.1/DTD/svg11.dtd">
<svg fill="#000000" version="1.1" id="Capa_1" xmlns="http://www.w3.org/2000/svg" xmlns:xlink="http://www.w3.org/1999/xlink" 
	 width="800px" height="800px" viewBox="0 0 272.354 272.354"
	 xml:space="preserve">
<g>
	<path d="M271.636,117.883c-9.792-71.604-94.248-94.248-146.268-52.02c-22.644-11.016-52.632-9.18-74.664,0.612
		C7.864,85.447-9.884,133.183,5.416,176.635c17.748,49.572,64.872,61.2,110.772,42.84c8.568-3.672,15.912-7.956,22.032-13.464
		c0.612,0.612,0.612,1.224,1.836,1.836C200.031,237.223,280.815,187.039,271.636,117.883z M209.212,182.143
		c-17.137,11.016-36.108,12.24-53.856,2.448c11.628-24.48,9.792-55.692-0.612-84.456v-0.612l0,0
		c15.912-10.404,33.049-16.524,52.021-11.016c20.196,5.508,41.004,25.704,39.78,47.735
		C244.708,153.99,223.287,172.963,209.212,182.143z M110.68,174.187c-14.076,11.016-34.272,12.24-50.184,0.612
		c-23.256-17.136-27.54-45.288-4.896-65.484c14.076-12.24,31.212-17.136,47.736-13.464
		C86.812,116.659,91.096,157.051,110.68,174.187z M122.919,132.571c0-5.508,1.224-11.628,3.06-16.524
		c3.06,11.016,3.672,22.032,0.612,33.048C124.755,143.587,122.919,138.69,122.919,132.571z"/>
</g>
</svg>